<svg xmlns="http://www.w3.org/2000/svg" xmlns:xlink="http://www.w3.org/1999/xlink" viewBox="349.7 99.87 841.81 818.07">
	<path fill="#020A0B" d="M569.224 115.087C617.037 113.2 664.706 118.362 709.496 135.996C729.832 143.93 749.209 154.131 767.262 166.405C791.32 182.819 811.945 203.445 832.544 223.894C842.507 233.784 852.874 243.421 861.497 254.542C868.589 263.658 874.493 273.639 879.066 284.245C883.661 294.839 887.039 305.921 889.135 317.277C891.486 329.894 896.064 395.973 892.392 405.304C890.339 407.218 887.836 407.319 885.081 407.559C869.363 408.932 852.67 407.858 836.856 407.832L745.27 407.957C734.766 399.724 725.133 389.498 715.394 380.31C700.573 366.327 685.229 352.604 671.218 337.817C671.257 334.147 671.96 326.948 669.259 324.232C666.372 321.33 659.957 321.47 656.172 321.508C638.701 321.685 619.205 324.278 606.483 337.483C598.223 346.056 595.569 357.121 595.912 368.796C595.981 371.127 596.298 374.63 597.817 376.468C600.467 379.675 623.093 385.339 627.916 386.781C683.215 403.313 734.789 417.354 782.921 451.052C796.687 460.69 809.031 471.878 822.101 482.367C839.483 496.318 857.3 509.082 873.588 524.408C919.828 567.915 943.115 617.14 944.911 681.074C946.586 740.66 929.578 795.005 888.155 838.709C834.334 895.493 763.543 915.616 687.375 917.621C621.359 920.49 554.251 904.165 499.269 867.093C478.021 852.766 460.061 835.481 441.634 817.851C430.863 807.546 419.424 797.638 409.174 786.835C381.421 757.587 362.952 722.781 355.291 683.133C352.807 670.278 345.658 615.319 352.771 604.808C354.647 603.43 356.923 603.397 359.178 603.263C375.067 602.312 391.488 603.134 407.423 603.142L493.5 603.305C504.245 611.261 513.81 622.298 523.45 631.628C532.565 640.45 544.827 650.285 552.276 660.361C552.992 670.219 552.475 692.089 560.227 698.598C570.329 707.081 595.397 706.24 608.106 705.085C629.763 703.117 651.141 694.825 665.292 677.668C676.726 663.804 682.992 642.944 681.026 624.939C680.124 616.682 669.048 616.47 662.489 614.822C601.745 599.558 541.886 583.242 492.587 542.32C477.254 529.592 463.723 514.807 448.904 501.466C438.43 492.037 427.353 483.328 417.254 473.476C383.577 440.621 365.691 402.945 361.411 355.963C356.021 296.796 368.891 238.406 407.573 192.156C448.63 143.067 506.864 120.612 569.224 115.087Z"/>
	<path fill="#F6EECF" d="M571.989 136.104C584.246 135.335 596.793 135.5 609.047 136.266C668.484 139.982 736.506 158.68 777.226 205.003C806.321 238.101 812.695 280.527 809.961 323.259C769.696 323.022 729.43 323.117 689.166 323.544C688.253 301.385 683.637 280.239 667.295 263.962C648.764 245.505 621.8 238.868 596.38 239.01C573.166 239.14 550.315 245.53 533.68 262.626C519.963 276.724 513.412 295.061 513.617 314.584C514.276 377.171 578.828 394.11 627.523 408.497C652.739 415.947 678.19 422.969 702.92 431.952C736.795 444.257 769.703 461.458 795.552 486.933C831.737 522.593 848.633 572.18 848.865 622.495C849.106 674.849 831.679 727.826 794.392 765.329C746.06 813.942 674.295 831.784 607.618 832.086L604.863 832.075C541.628 831.662 469.011 818.176 422.928 771.236C383.381 730.954 370.024 679.397 370.541 624.167L477.356 624.163C480.252 653.221 487.86 679.142 510.418 699.097C535.581 721.356 572.939 727.851 605.562 725.759C633.192 723.988 660.333 714.638 678.947 693.25C695.788 673.899 702.581 648.094 700.628 622.792C694.456 542.875 596.367 534.367 536.456 515.153C501.364 503.898 464.531 488.059 436.322 463.801C401.985 434.273 384.239 392.154 380.922 347.519C377.095 296.018 389.73 243.495 424.049 203.922C461.44 160.808 516.135 140 571.989 136.104Z"/>
	<path fill="#038F81" d="M844.444 521.941C848.138 523.639 852.302 528.028 855.431 530.724C879.934 551.831 900.407 580.126 911.962 610.386C931.107 660.523 930.873 723.811 908.688 772.962C886.036 823.146 842.358 861.006 791.216 880.299C717.476 908.118 615.253 904.198 543.375 871.652C519.664 860.618 497.863 845.873 478.795 827.971C480.895 828.935 483.026 829.833 485.182 830.662C560.41 859.432 663.631 859.386 737.35 825.963C790.006 802.089 833.02 763.614 853.561 708.606C876.464 647.269 871.447 580.922 844.444 521.941Z"/>
	<path fill="#038F81" d="M591.661 258.363C606.711 256.924 624.449 259.691 637.913 266.552C653.252 274.368 661.726 286.408 667.034 302.421C648.621 301.802 629.893 302.09 612.591 309.222C597.055 315.627 586.459 326.422 580.059 341.876C576.695 351.549 575.946 361.049 576.229 371.176C569.083 368.002 562.459 364.807 556.231 359.952C544.207 350.578 536.027 337.627 534.228 322.362C532.493 307.645 535.77 292.521 545.116 280.807C556.457 266.595 574.106 260.224 591.661 258.363Z"/>
	<path fill="#038F81" d="M705.733 343.096C741.733 341.843 778.077 342.869 814.114 342.872C824.991 352.067 852.491 377.741 861.1 388.526L751.705 388.607C746.15 384.016 707.152 346.886 705.733 343.096Z"/>
	<path fill="#038F81" d="M814.93 231.48C819.162 233.539 824.229 239.503 827.613 242.902C868.065 283.533 872.314 318.968 872.175 373.99C865.087 369.589 839.199 342.28 830.878 334.142C831.212 298.704 830.523 264.164 814.93 231.48Z"/>
	<path fill="#038F81" d="M493.03 519.738C493.145 519.759 493.262 519.774 493.376 519.801C498.347 520.996 503.366 523.372 508.143 525.194C518.4 529.106 528.631 533.118 539.138 536.323C575.325 547.363 629.231 556.158 658.54 579.941C665.032 585.209 669.732 591.183 674.257 598.115C606.175 581.173 546.491 569.427 493.03 519.738Z"/>
	<path fill="#038F81" d="M497.955 633.623C504.644 638.002 527.389 661.74 533.943 668.845C534.226 677.597 535.022 685.88 536.998 694.426C533.966 693.087 531.188 691.125 528.506 689.191C509.779 675.685 501.541 655.578 497.955 633.623Z"/>
	<path fill="#020A0B" d="M1011.93 100.088C1033.43 99.0097 1054.94 102.026 1075.31 108.976C1110.08 121.071 1158.82 156.025 1175.05 189.774C1184.45 209.513 1185.62 232.179 1178.31 252.783C1173.82 265.371 1162.52 282.334 1150.08 288.323C1153.42 289.817 1156.27 291.895 1159.13 294.167C1176.55 308.008 1188.52 329.622 1190.93 351.622C1193.81 378.011 1186.03 404.456 1169.33 425.08C1149.89 449.287 1119.61 463.632 1089.1 466.953C1044.27 471.832 1007.74 461.198 972.804 433.071C938.228 402.764 904.938 375.532 897.346 327.435C896.313 320.891 893.887 295.28 897.808 290.832C898.247 290.335 899.111 289.687 899.7 289.437C904.552 287.374 963.837 288.694 973.714 288.973C978.165 292.401 981.94 297.121 985.887 301.15C995.783 311.25 1005.57 321.731 1015.8 331.477C1018.72 334.251 1022.05 335.94 1026.13 335.903C1026.78 335.35 1027.78 334.859 1027.79 333.944C1027.81 331.669 1026.27 329.508 1024.85 327.844C1021.46 323.867 1016.98 320.471 1013.05 317.016C1003.35 308.496 993.114 300.271 984.338 290.793C983.828 283.635 984.113 276.331 984.14 269.152C976.456 269.192 968.771 269.144 961.087 269.009C953.39 263.108 946.256 256.015 939.011 249.527C927.551 239.265 915.892 229.15 904.694 218.607L904.621 217.839C902.018 189.254 906.395 162.294 925.201 139.723C947.684 112.737 978.079 103.185 1011.93 100.088Z"/>
	<path fill="#F6EECF" d="M1008.96 121.08C1018.41 119.869 1029.39 120.3 1038.88 121.343C1060.32 123.7 1081.97 133.293 1095.54 150.466C1106.1 163.935 1110.76 181.099 1108.47 198.058C1106.02 217.387 1094.78 230.846 1078.31 240.361C1073.47 243.161 1066.99 246.003 1062.85 249.774C1061.52 250.988 1061.41 251.746 1061.33 253.483C1063.4 257.586 1082.95 264.177 1088.48 267.301C1094.01 270.428 1099.22 274.124 1103.76 278.595C1115.47 290.155 1119.95 304.4 1120.07 320.575C1120.23 340.563 1114.6 358.982 1100.29 373.415C1079.89 393.977 1049.03 401.892 1020.78 401.947C991.648 402.003 961.069 394.816 940.043 373.492C922.383 355.581 915.772 332.764 915.931 308.308L924.117 308.469C936.505 309.817 949.448 309.167 961.94 309.818C963.033 321.132 966.687 331.947 974.261 340.592C983.202 350.796 996.211 355.268 1009.47 356.018C1021.91 356.721 1035.2 354.517 1044.65 345.793C1051.92 339.074 1055.64 329.711 1055.95 319.895C1056.27 309.783 1052.96 298.623 1045.91 291.188C1034.69 279.357 1018.46 277.079 1002.99 276.704C1002.79 265.613 1002.97 254.5 1003 243.406C1011.7 241.909 1020.24 240.374 1028.13 236.15C1037.4 231.187 1044.33 222.96 1047.29 212.846C1050.5 201.875 1049.92 188.503 1044.34 178.372C1040.34 171.106 1033.72 166.722 1025.83 164.588C1014.95 161.646 1002.22 161.902 992.327 167.762C980.452 174.795 976.306 186.291 973.186 198.985L923.753 198.955C925.076 182.808 930.71 167.561 940.994 154.947C958.022 134.062 982.64 123.738 1008.96 121.08Z"/>
	<path fill="#038F81" d="M1137.18 302.693C1138.03 302.751 1138.78 302.8 1139.58 303.117C1151.17 307.688 1162.1 323.596 1166.92 334.522C1175.03 352.913 1174.17 373.835 1166.99 392.372C1158.48 414.33 1140.73 430.361 1119.55 439.742C1086.43 454.417 1049.92 453.152 1016.51 440.317C1002.46 434.139 989.485 425.774 978.058 415.533C1013.25 423.603 1053.11 423.141 1085.92 406.772C1108.37 395.573 1127.23 377.027 1135.11 352.793C1138.65 341.919 1142.43 312.89 1137.18 302.693Z"/>
	<path fill="#038F81" d="M1121.31 158.649C1122.03 158.636 1122.67 158.615 1123.36 158.851C1125.89 159.711 1128.79 162.775 1130.76 164.528C1141.82 174.382 1151.19 185.186 1157.34 198.819C1164.21 214.032 1165.4 230.63 1159.26 246.33C1154.71 257.974 1143.02 272.85 1131.15 277.95L1129.9 278.808C1127.41 277.512 1125.89 273.727 1124.09 271.542C1117.15 263.103 1106.84 255.17 1096.44 251.602C1100.96 249.305 1105.11 246.637 1108.91 243.26C1122.3 231.363 1127.45 215.401 1128.41 197.973C1128.98 187.693 1128.31 166.487 1121.31 158.649Z"/>
	<path fill="#038F81" d="M1009.81 182.412C1015.34 182.022 1020.33 182.31 1024.65 186.304C1028.14 189.523 1029.6 194.266 1029.68 198.899C1029.79 205.417 1027.24 211.698 1022.6 216.281C1012.55 226.336 996.256 224.755 983.154 224.775L983.169 246.984C977.293 246.994 971.397 247.234 965.521 247.371L960.751 243.298C951.723 235.191 942.653 227.133 933.541 219.122C953.829 219.204 974.117 219.154 994.404 218.972C994.38 210.124 993.049 198.657 997.617 190.784C1000.47 185.862 1004.58 183.868 1009.81 182.412Z"/>
	<path fill="#038F81" d="M1013.72 296.195C1015.49 296.213 1017.32 296.214 1019.07 296.51C1024.15 297.366 1029.99 300.635 1032.79 304.982C1034.3 307.326 1034.73 309.185 1034.07 311.885C1032 311.381 1017.14 298.613 1013.72 296.195Z"/>
</svg>